<?xml version="1.0" encoding="UTF-8"?>
<svg version="1.1" viewBox="0 0 1024 1024" width="1024" height="1024" xmlns="http://www.w3.org/2000/svg">
<path transform="translate(731,62)" d="m0 0h10l11 4 22 12 21 13 20 14 16 12 16 13 15 13 8 8 8 7 9 10 9 9 9 11 13 16 13 18 10 15 10 16 10 18 12 23 11 25 9 24 8 24 9 36 5 27 3 26 1 14v52l-2 25-4 28-5 26-8 31-12 35-10 23-14 29-14 24-14 22-13 18-11 14-14 17-13 15-12 12-7 8-10 9-14 13-11 9-15 12-18 13-21 14-18 11-13 7-4 1h-11l-11-4-8-7-6-11-1-3v-15l5-12 9-8 18-11 15-10 14-10 18-14 13-11 12-11 5-5 10-9 14-15 12-14 11-14 13-18 10-15 12-20 12-23 10-21 10-27 7-23 7-31 5-35 2-23v-53l-3-29-5-29-6-24-7-22-8-22-13-28-12-23-13-21-11-16-10-13-9-11-12-14-23-23-8-7-13-11-13-10-18-13-26-17-22-13-5-5-4-5-3-8v-14l4-10 7-8 8-5zm-1 10-8 4-5 6-3 7v9l3 8 8 7 27 16 16 11 17 12 13 10 13 11 10 9 8 7 20 20 7 8 10 12 10 13 14 20 16 27 12 23 10 22 10 27 8 27 6 27 4 26 2 19 1 24v20l-2 31-4 31-5 26-8 31-9 26-11 26-13 26-13 22-16 24-9 12-11 14-12 14-12 13-23 23-8 7-17 14-13 10-17 12-17 11-13 8-6 4-5 8-1 3v11l5 10 7 6 12 2 9-3 19-11 27-18 19-14 13-11 10-8 13-12 8-7 22-22 9-11 9-10 11-14 15-20 14-21 13-21 13-25 8-16 13-32 10-31 6-24 6-31 4-33 1-14v-46l-2-26-5-33-7-31-8-27-10-28-13-30-10-20-13-23-10-16-8-12-14-19-11-14-12-13-7-8-25-25-8-7-14-12-16-12-18-13-20-13-23-13-14-7z" fill="#424242"/>
<path transform="translate(669,166)" d="m0 0h9l11 4 17 9 23 15 14 10 14 11 14 12 12 11 13 13 7 8 12 14 13 18 10 15 10 17 12 23 9 20 11 31 8 31 5 31 2 22v31l-3 33-6 31-8 28-8 22-8 18-8 17-14 24-12 18-12 16-8 10-11 13-16 17-7 7-8 7-11 10-17 13-16 12-22 14-15 9-7 2h-10l-10-4-8-7-5-8-2-7v-11l4-10 9-10 24-15 16-12 13-10 15-13 17-17 9-11 10-12 11-16 13-21 12-23 11-27 6-18 7-28 4-26 1-11v-43l-3-24-5-24-8-26-10-25-8-17-14-24-14-20-9-11-9-10-7-8-9-9-8-7-13-11-17-12-22-14-15-9-7-8-4-10v-13l4-10 8-9 9-5zm0 10-9 4-6 7-2 6v10l4 8 11 8 20 12 20 14 14 11 12 11 8 7 8 8 7 8 12 14 14 20 8 13 9 16 8 16 8 19 8 24 6 24 4 25 2 27-1 31-3 25-5 25-8 27-10 26-13 27-12 20-8 12-14 19-11 12-7 8-20 20-28 22-24 16-11 7-6 7-2 7v7l3 7 6 7 7 3h11l15-8 24-16 19-14 13-11 14-12 26-26 7-8 13-16 14-20 12-19 10-18 8-16 9-21 11-33 7-30 4-32v-50l-3-26-5-25-6-22-9-26-10-23-11-22-14-23-12-17-10-13-12-14-16-17-16-15-11-9-14-11-27-18-21-12-9-4z" fill="#434343"/>
<path transform="translate(484)" d="m0 0h16l13 4 9 8 5 10 2 8v8l-4 20-10 36-11 32-11 28-12 26-12 23-10 17-14 21-14 19-11 13-9 11-16 17-15 15-8 7-10 9-14 11-16 12-24 16-22 13-29 15-27 12-27 10-29 9-34 8-36 6-33 3h-43l-11-4-9-8-5-10-1-4v-18l5-25 6-24 12-36 11-27 8-18 10-19 10-18 14-22 14-19 11-14 11-13 9-10 15-16 12-11 11-10 11-9 14-11 20-14 21-13 16-9 23-12 28-12 30-11 26-8 32-8 42-8 33-4zm-6 10-40 4-32 5-29 6-34 9-30 10-30 12-24 11-22 12-21 13-16 11-16 12-11 9-14 12-10 9-24 24-9 11-14 17-13 18-13 20-15 26-13 26-12 29-10 28-9 32-6 29v15l4 8 8 7 6 2 20 1 38-2 38-5 25-5 28-7 36-12 22-9 24-11 23-12 25-15 19-13 12-9 16-13 14-12 16-15 9-9 7-8 9-10 8-10 14-18 18-27 9-15 13-24 13-28 11-29 12-35 8-30 3-14v-14l-4-8-5-5-9-4z" fill="#424242"/>
<path transform="translate(32,571)" d="m0 0h11l33 3 30 4 36 7 32 8 36 12 26 10 24 11 24 12 22 13 18 12 15 11 16 13 14 12 16 15 8 8 7 8 10 11 13 17 12 16 14 22 9 15 12 22 11 22 15 35 13 36 10 33 5 21v16l-4 10-8 9-10 5-4 1h-25l-42-5-35-6-36-8-28-8-24-8-28-11-26-12-23-13-19-12-16-11-13-10-11-9-14-12-15-14-18-18-7-8-10-12-11-14-14-19-12-18-13-22-15-29-11-25-11-29-8-26-6-24-4-23v-16l3-10 4-6 7-7 10-4zm2 10-8 2-7 4-4 5-3 9 1 17 5 26 7 26 8 24 10 25 11 24 12 23 10 17 20 30 14 18 9 11 9 10 7 8 7 7 7 8 12 11 11 10 11 9 18 14 27 18 17 10 25 13 26 11 27 10 26 8 37 9 31 6 35 5 30 3h11l9-2 8-6 5-10v-11l-6-25-9-29-11-31-13-31-12-25-13-25-15-24-12-18-12-16-9-11-12-14-31-31-11-9-16-13-18-13-19-12-23-13-24-12-28-12-34-12-28-8-30-7-35-6-36-4z" fill="#424242"/>
<path transform="translate(609,274)" d="m0 0 11 2 21 11 18 12 16 12 10 9 8 7 11 11 18 22 10 15 10 18 10 21 8 22 6 26 2 14 1 16v14l-2 25-4 21-8 26-12 27-12 20-10 14-9 11-9 10-18 18-11 9-20 15-28 17-9 4h-13l-10-4-8-7-5-8-2-6v-12l4-10 7-8 11-7 15-9 11-8 16-13 15-15 12-16 9-15 8-17 7-21 4-19 2-25-1-21-3-19-8-26-10-22-13-21-8-10-9-10-4-5-8-7-12-10-17-11-15-9-6-5-5-8-2-7v-13l4-10 8-9 7-4zm-4 10-10 5-5 6-2 5v12l6 10 11 7 16 10 16 12 10 9 14 14 13 17 12 20 9 19 8 24 4 19 2 20v20l-3 24-6 22-6 16-8 16-8 14-11 14-9 10-15 15-19 14-21 13-9 6-4 5-2 5v10l4 8 8 7 6 2h7l9-4 16-9 15-10 16-12 14-12 20-20 8-10 10-14 12-20 12-25 8-24 5-24 2-25v-13l-2-23-4-21-9-27-9-20-11-20-11-16-11-14-12-13-11-11-11-9-16-12-19-12-17-9-4-1z" fill="#434343"/>
</svg>
